<svg xmlns="http://www.w3.org/2000/svg" viewBox="0 0 300 300"><defs><style>.cls-1{fill:#ffe7ff;}.cls-2,.cls-3{fill:#ff5c33;}.cls-2{fill-rule:evenodd;}</style></defs><title>Bubble_Gum_Branding_4</title><g id="Ebene_3" data-name="Ebene 3"><circle class="cls-1" cx="150" cy="150" r="145"/></g><g id="front_girl" data-name="front girl"><path class="cls-2" d="M117.4,191.94c-.83.69-.25,5.74-.48,7.15-.45,2.77-.79,5.57-1.41,8.31A77.76,77.76,0,0,1,109.68,223c-2.31,4.95-4.78,10.5-8.3,14.75S93,245.58,88.64,249c-5,3.89-11.16,8.91-17,11.27-1.1.44-6,2.17-6.74,1.25-1.8-2.12,6.06-4.92,7.29-5.73,11.1-7.22,24.44-15.67,30.26-28,.84-1.79,3.29-5.81,2.85-7.91-.72-3.48-3.21-.25-5.44.65-6.52,2.62-16.68,2-23.32-.17-6.29-2-12.28-7.3-16.26-12.46-1.34-1.74-1.23-1.88-3.18-2.94-1.49-.82-3.35-1.13-4.78-1.95a27.52,27.52,0,0,1-5.65-4.73c-4.61-4.89-8.09-11.58-8.28-18.32-.1-3.45.78-6.65,1.32-10,.66-4-.9-6.84-2.07-10.73-1.94-6.47-2.78-15.27,0-21.57a57.37,57.37,0,0,1,9.68-14.94,110.4,110.4,0,0,1,13.09-12.85c2.39-2,5.41-3.83,7.29-6.36a89.09,89.09,0,0,0,6-10.09C77.26,86.84,79.58,79.1,81.74,72a102.27,102.27,0,0,1,9.62-21.12c4.23-7.36,11-11.64,17.69-16.52a39.45,39.45,0,0,1,21.81-7.82c7.19-.24,14.81-.47,21.79-1.23,6.78-.74,13.09-3,19.87-3.5,14.54-1.06,28.77,1.31,40.09,11.1,2.64,2.29,5.1,4.19,6.61,7.44C220.86,43.84,221,44.73,224,47a27.49,27.49,0,0,1,7,7.32c1.46,2.52,4.85,5.41,5.59,8.22s-.23,8-1.31,10.62c-1.22,3-3.2,3.2-.92,5.67s5,3.49,6.46,7.08c1.41,3.44,3.68,7.53,4,11.24.33,3.4-.23,6.51.31,9.87s1.05,7.38.3,10.69c-1.43,6.33-5.13,11.78-6.08,18.29-1.07,7.23,5.33,11.44,8.57,17.59a26.85,26.85,0,0,1,3.24,10.42c.41,3.68-.35,7.79.31,11.27s2.93,6.7,3.64,10.28a39.38,39.38,0,0,1,.21,14A36.92,36.92,0,0,1,245.66,219c-11,11.48-27.61,14.44-42.18,8.56-3-1.23-6.1-2.41-8.89.09-3.11,2.8,1.61,7.45,3.56,10.29,2,3,3.94,6.73,6.61,9.21s6.59,3.3,10,4.34c3,.89,6,1.73,8.93,2.54,1.61.44,8.25,1.14,8.77,2.77.15.47-8.54-.26-9.3-.44-4.85-1.09-10.29-1.81-15-3.34.92,2,5.89,5.84,5.73,8.09-.2,2.88-2.39,1.53-4,.32-4.31-3.28-7.81-9.56-10.52-14.22-2.21-3.8-4.59-10.35-9.07-4.47-1,1.28-5.4,13.14-4.86,13.51-1.87-1.29,1.41-14.36,1.57-16.7.17-2.58.12-7.57-2.36-9.31-2.12-1.49-7.26-.78-9.78-1-11.4-1.16-23.17-4.67-32.7-11.07a78.08,78.08,0,0,1-14.87-13.13c-1.83-2.07-3.51-4.3-5.13-6.54C121.4,197.4,118.87,192.15,117.4,191.94ZM112.11,46.45C112.81,46.45,112.11,45.74,112.11,46.45Zm29.56,23.26c-4.31-3.95-11.61-3.84-17-4.61a41.45,41.45,0,0,0-19.31,1.76c-6.22,2.2-9.31,9.79-6.65,15.94,1.09,2.53,3.34,4.62,4.59,7.17.92,1.87,2.17,8.14,4.49,8.7.78-2.13-1.71-5.44-1-8.21A21.59,21.59,0,0,1,110.9,83a25.15,25.15,0,0,1,5.6-5.1c1.24-.8,6.36-1.93,6.89-3-3.62-2.3-14.32,4.9-15,4-2.87-3.63,13.33-7.56,14.43-8.2-1.53-2.22-5.72.26-7.69-.6.66-3.4,13.13-2.18,15.53-1.78a63.08,63.08,0,0,1,7.45,1.53c.85.25,4.32,2.27,5.08,1.65A2.69,2.69,0,0,0,141.67,69.71Zm79,54.43c1.74.27.74,1.82,2.36.44.76-.66,1-3.73,1.2-4.56a20.65,20.65,0,0,0,.19-8.85c-1.3-7.48-.32-15.21-1.15-22.78-.28-2.6-.08-6.51-2.94-6.44-1.49,0-2.06,1.12-3.35,1.49-1.65.47-3.52.57-5.19,1-3.2.74-6.06.41-9.18.8-2.66.33-5.19,2-7.89,1.89-5.15-.27-10.38-2.1-15.39-3.48a55.63,55.63,0,0,0-6.88-1.94c-3.53-.47-6.18.27-9.64-.92-5.21-1.79-10.47-2.92-15.13-5.83-.76-.47-1.56-2.16-2.5-2.1-.78,0,.15,1.93-.59,2.27-3.34,1.54-5.11-2.18-8.3-1.47.4,1.63,3.72,2.16,3.2,4.19s-3,0-3.83-.31c-2.93-1.24-8.37-3.9-11.55-2.58,0,.12.91,1,.7,1.2-.38.36-1.86.47-1.93,1-.31,2.28.78,0,1.23,1.44-.72,1.73-3.39,1.39-3.29,3.7,1,.44,2.7-1.56,3.39-.2.43.84-4.15,3.16-3.79,5,.77.51,1.21-.89,1.69.34a12.27,12.27,0,0,1,.13,2.11A32.68,32.68,0,0,0,124.14,96c.55,1.21,2.43,3,2.45,4.29,0,2-3.06,3-2.8,5.19,1.26,0,1.34-1.89,2.7-1.49.15.89-4.07,5.84-4.64,6.9-1.43,2.62-1.72,4.87-2.15,7.68-.86,5.52.23,12.14-3.5,16.77-2.11,2.63-4.67,4.28-7.41,6.07-.93.61-3.15,1.69-3.56,2.79-.49,1.29.71,1.52.59,2.53-.36,2.94-3.21,4.09-1.85,7.4.67,1.63,4.46,4.57,3.74,6.88-1.22,3.95-9.22-4.12-10.2-6.31-.71-1.59.29-7.07-.52-7.55-2.52-1.47-3.19,6.71-3.06,7.56a10,10,0,0,0,3.84,5.74c1,.81,4.69,2.1,4.45,3.85-.44,3.21-10-9.53-10.58-9.59-2.69,4,4.31,9.38,6.49,11.79s3.56,4.85,6.66,5.9c2,.68,4.94.16,6.63,1.18,2.22,1.34,2.77,5.95,4.18,8.49s3.05,5.33,4.62,7.93a81.61,81.61,0,0,0,11.92,15c8.77,8.87,20.1,14.07,32,17.45A81,81,0,0,0,180.38,225c5.18.39,10.69,1,15.31-2a34.86,34.86,0,0,1-7.94-8.14c-2.34-3.34-3.21-7.42-5.37-10.71-1.27-1.93-1.13-1.7-3.32-2.38a18.71,18.71,0,0,1-4.91-2.47c-1.82-1.19-6.17-4.29-5.92-7,1.44-.34,2.91,1.83,3.71,1.31,2.05-1.33-1.81-2.36-1.76-2.22-.54-1.45-.14-1.65,1.83-1.58,2.78.1,4.28,2.16,7.3,2a10.59,10.59,0,0,1-.7-3,23.82,23.82,0,0,0,1.2-2.8c-2,.47-2.05,1.59-3.53,2.39-1.94,1.06-3.23.06-5.34-.16-1.32-.14-9.78,2.25-8-1.71.4-.89,2.61-1.06,3.41-1.32,2.4-.76,3.73-2.06,5.8-3.37,3.38-2.13,8.94-1.29,11.27-3.5s3.7-6.34,5.79-8.89a39.35,39.35,0,0,1,8.33-7.71c7.54-5.11,16.66-6.78,25.63-6,0-6-1.5-11.83-2-17.83-.08-1,.22-3.53-.5-4.33,0,0-3-.59-3.39-.8-2.6-1.57-2.56-4.61-6.59-3.8,1.87,1.66,1.9,2.7,2.2,5.09,1-.17,2.52-1.32,3.59-.49-2.08,3.61-8.54,3.57-12,2.94-2.43-.44-4.82-1.09-7.23-1.62l-1.76.27a3.89,3.89,0,0,0-1.31-1.18c-1,.05-1-.61-2,.38-2.1,2,.2,10,.61,12.32.35,2,3.53,11.27,2.44,12.45-2.64-.88-4.14-6.43-4.94-8.78a33.79,33.79,0,0,1-2.09-13.11,18.66,18.66,0,0,1,4-10.48c.94-1.3,4.41-7.54,6.55-6.68.08,1.57-2.66,4.06-3.31,5.37-.46.92-2.5,5-2,5.82,2.47.49,4-2.64,5.62-3.92.89-.7,6.15-2.42,6.27-3.07-1.37-1-3.15.82-4.6.1,1.86-4,10.18-1.65,13.19-1,.21,0,1.35-.21,1.73-.18-1.51-.12,2.51,1.3,1.49,1l.49-.75c.55-.54,1-.43,1.23.34l.35.83A10.86,10.86,0,0,1,220.65,124.14Zm-124,4.79c4,1.4,9.3,1.78,12.63-1.09,2.8-2.42,3.69-6.74,4.62-10.14,1-3.61,2.16-7.32,1.27-11-.5-2.09-4.06-12.86-6.44-12.67-1.55.61,1.93,5.9,2.26,6.7a13.77,13.77,0,0,1,.56,8.67c-1.48,7.09-7.26,10.45-14,11.85-5.79,1.21-9.6-.06-15.35-.82a42.88,42.88,0,0,0-9.57-.46c-1.24.11-6.86,1.88-7.74,1,2.12-2.7,8.2-2.26,11.1-2.32,3.68-.09,7.52,0,11.18-.37s6.51-2.13,9.61-3.85c3.75-2.08,1.38-2.84-1.63-1.55-4.14,1.78-7.29,3.25-11.88,3.8-4.06.49-8.23.5-12.31.82a37.62,37.62,0,0,0-10.56,2.08c-2,.75-8.08,3.43-7.69,6.19,1.29.36,2.38-1.45,3.6-.3-1.13,2-5.37,3.63-7.19,5.29a24.13,24.13,0,0,0-4.5,4.59c-1.27,2-5.7,12.08-2.19,13.58.74-1.32,2.46-8.33,4.49-8,.87,4.6-1.62,8.68-.06,13.17,1.4,4,4.55,7.37,9,7.51-.2-2-5.25-8.14-4-10,1.36-.23,4.46,2.91,5.69,3.39a19.92,19.92,0,0,0,7,1.16c4.82-.07,10.33-1,14.21-4.11,2.46-2,4.94-10.08.63-6.44-1.61,1.36-2.45,3.46-4.8,3.88s-2.52-.95-5-.75c-1.58.13-3.22,1.5-5.1,1.37a13.94,13.94,0,0,1-6.33-2.24c-4.55-3.19-3-8.46,0-12.14a36.66,36.66,0,0,1,9.54-8c1.12-.64,3.88-1.08,2.44-2.56-1-1.07-3.72.51-4.69-.67C67.72,118.27,93.94,125.18,96.63,128.93Zm11.68-29.56c-.92,0-.11,3.61.8,3.9A3.67,3.67,0,0,0,108.31,99.37Zm113.94,26.77c-.71-.07-1.21,1.71-.9,2.29C222.8,128.72,223.14,126.22,222.25,126.14Zm-20.87,4.19c-5.9,2.12.39,3.67,3.2,4.39-.07-2.13.78-3.34,1-5.29A10.49,10.49,0,0,0,201.38,130.33Zm4.79,1.6c1.13.88,1.83-.54,2-1.5C207.15,129.18,206.08,131.14,206.17,131.93ZM197,217.81a33.48,33.48,0,0,0,41.77,1.07c12-9.31,16.7-25.79,10.34-39.76A34,34,0,0,0,215,159.63a32.73,32.73,0,0,0-18.14,7.84c-4.25,3.66-11.28,10.86-12.24,16.58,3.61-3.71,5.82-7.54,10.34-10.34,1.3-.81,8.79-5.79,10.33-3.94-.42,1.92-4.79,3.28-6.17,4.22a37.18,37.18,0,0,0-5.63,4.94c-3.12,3.17-8.65,8.23-5,12.64,1.64,2,10.38,6,10.49,8.07.12,2.38-10-5.15-11-5,.6,4.9,5.14,10.53,8.18,14.16a38.66,38.66,0,0,0,5.72,5.79c1.49,1.17,4.48,2.23,5.27,4-4.18,1-10.89-5.49-13.39-8.24A37,37,0,0,1,189.2,204c-1-1.78-2.07-6.27-3.9-7.19A34.23,34.23,0,0,0,197,217.81ZM62,180.86c.7,0,10.2,0,8.23-1.93-.94-.89-5.8,0-7.13-.16a21.45,21.45,0,0,1-4.9-1c-.87-.31-1.72-1.76-2.83-1.3s-1,4.35-.46,5c.85,1,3.32.66,4.18,2,1.09,1.73.33.7-.49,2.55s-2.59,3.73-.7,5.06c1.15.81,1.48-1.23,2.65.08.86,1-.75,2.92-.05,3.85,1.13,1.48,8.73.71,10.52.28s9-3.17,9.15-5.67c-.84-.75-15.86,4.64-15.48,1.19,1.69,0,10.93-.66,10.79-3.39-2.92-1.24-6.14,1.64-9.09,1.32-4.64-.52.17-1.39,2.11-1.85,1.59-.37,5.4-1.2,4.37-3.26-.84-1.67-2.79-.74-4.13-.72-2.07.05-9.35.63-10.14-1.88C59.11,179.94,61.22,180.8,62,180.86Zm115.14,13.48c.3.87,2.21.36,2.79.7C180.83,194.08,177.51,193.38,177.12,194.34Z"/><path class="cls-2" d="M162.24,112.85c1.71,3.24.64,3.77-3.1,3.5s-7.46-2-11.18-2.8-7.61-1-11,1a45.11,45.11,0,0,0-4.6,3.3c-.69.56-2.49,3-3.29,3.14-2.42.38,1.1-4.75,1.82-5.71a16.93,16.93,0,0,1,9.06-6.53,25,25,0,0,1,14.41.44C156.84,110,159.55,112.81,162.24,112.85Z"/><path class="cls-2" d="M222.75,117c-1.54,0-3-2.25-4.65-2.68a17.4,17.4,0,0,0-7.83,0c-2.37.46-8.86,4.15-9.84,2.22-2.45-4.78,8.66-7.7,11.24-7.81,3-.13,6-.3,8.29,1.9C221,111.59,224.5,115.56,222.75,117Z"/><path class="cls-2" d="M108.61,119.55c1.6,1.19-11.23,7.91-12.18,4.19C97.72,123.57,108.7,120.47,108.61,119.55Z"/><path class="cls-2" d="M157,125.74c-1.12-.3-5.8-2-6.79-.6.85,1.65,6.6,1.67,8.18,2.67,1,.65,1.39,1.66,2.24,2.43,1.18,1.08,3.16,1.34,4.06,2.09,3.51,2.86-1.17,2.76-3.39,1.89-3.11-1.22-4.85-4.95-8.69-5.09.75,1.62,1.65,3,1.2,4.89.8.08,2.55-.74,3.09.3-1.35,2.38-7.84,3-10.29,2.9-1.87-.07-3.92-.09-5.61-1-2.14-1.19-1-1.93-1.87-3.16-.91.07-1.23,1.21-2.17,1.49a6.63,6.63,0,0,1-3.19-.14c-1.88-.43-5.17-2-1.73-2.95-.72-2-1.08-1.2-.18-2.62a9.54,9.54,0,0,0,1.61.11c.41-.29-.36-1.34-.13-1.46-.2.11,1.41-.77,1.3-.68a3.92,3.92,0,0,0,1.3-.25c.66-.34,1.3-1.41,2.06-1.76.55-.25,1.46.17,1.92,0,0,0,1.22-1,1.18-1,1-.16,2.86-.2,4.35-.31,4.29-.3,8.57-.59,12.55,1.14m-18.57,8.39c1.53,1.68,4,2.2,6.19,2.39-.12-1.3-.37-3.18.28-4.42s1.85-1.13,2.42-2.07C145.34,129.15,140.65,129.48,139.47,132.93Zm7.69-1.8c.13,2,2,.53,2.1-.7A2.43,2.43,0,0,0,147.16,131.13Z"/><path class="cls-2" d="M167.23,164.08c0,2,0,3.4,1.59,5,.92.93,4,2,1.67,2.9C165.16,174.12,165,162.85,167.23,164.08Z"/><path class="cls-2" d="M175.42,167.38c1.1-.09,6.7.53,6.79,2.29s-2.38.84-3.27.9c-1.4.09-3.8.73-5.06,0C171.58,169.18,173.11,167.56,175.42,167.38Z"/><path class="cls-2" d="M246.92,193.14c3.72-.1-3.69,15.72-4.48,16.8-3,4.09-10.14,10.67-15.74,10.62-3.23,0-2.56-.87.13-2.2a41.65,41.65,0,0,0,9-5.4,30.42,30.42,0,0,0,7-8.92C243.62,202.61,246,193.43,246.92,193.14Z"/><path class="cls-3" d="M113.61,74.49c-.65-.21-1.3-.4-2-.56q-3.3-1.55-.92,4.21c.7-.07,1.84-1.72,2.25-2.29A8,8,0,0,0,114.26,69c-1.76-5.38-8.12-5-12.51-3.74C96.32,66.86,91.11,71,91.19,77.17c0,3.63,2.08,5.71,3.86,8.6C97.06,89,96.9,93,99.18,96.2c2.69,3.83,9.39,2.78,9.3-2.52a22.41,22.41,0,0,1,2.57-11.24l-9.12-1.2c1.76,4.64.46,9.45,1,14.27.47,4.57,2.24,8.62,3.76,12.9.8,2.25.7,1.69-.72,3.16a32.53,32.53,0,0,0-3.51,4,13.34,13.34,0,0,0-2.18,11.28c1.12,4.82,8.44,4.7,9.63,0a1.26,1.26,0,0,1,1.45-1.4L107,117.94l-2.1,4.08c-2.93,5.71,5.69,10.77,8.63,5l2.09-4.08c1.65-3.22-.33-7.67-4.31-7.52a11.37,11.37,0,0,0-11.08,8.74h9.63c-.83-3.55,4.5-6.3,6.09-9,1.83-3.06,1.46-6.25.32-9.48-1.5-4.21-3.46-8.25-3.6-12.79-.15-5,.69-9.57-1.13-14.37-1.41-3.72-7-5.32-9.13-1.19a33.13,33.13,0,0,0-3.94,16.28l9.31-2.52c-1.46-2.06-1.52-4.44-2.31-6.78a21.83,21.83,0,0,0-2.94-5.15C101,76.8,101.38,76,104,75c2.23-.89,3.79.33,1.78-2.61s-.83-2-2.38-1A5.78,5.78,0,0,0,101.81,74a6.28,6.28,0,0,0,.3,4.83c1.63,3.5,5.49,4.28,8.84,5.31,6.16,1.9,8.79-7.73,2.66-9.63Z"/><path class="cls-3" d="M144.93,70c-.35-11.57-14.25-8.25-21.68-8.47C118.8,61.43,113,59.17,110,63.77c-3.94,6,3.05,9.23,7.47,10.77l-3-7.34A7,7,0,0,1,112.71,69a5,5,0,0,0,0,7.06l1.73,1.44,1-7.84-.9.41,3.84-.5-.92-.37v9.63a5.93,5.93,0,0,1,3.07-.16c6.4.55,6.37-9.43,0-10a17,17,0,0,0-5.72.51c-5.24,1.27-4.22,7.94,0,9.63,2.15.86,3.67.37,5.67-.55,2.77-1.28,3.33-5.9,1-7.84L119.77,69v7.06a19,19,0,0,0,3.32-3.83c2-2.82-.17-6.35-3-7.33-.49-.18-1-.34-1.49-.5q-2.13-1,.16,1.21l-.51,3.85c-2.3,1.07-2.58,1.53-.82,1.39l1.12.1c1.09.11,2.16.34,3.24.44a24.44,24.44,0,0,0,4.36-.07c1.92-.15,3.84-.34,5.77-.33a20.89,20.89,0,0,0,2.72.13c2.27-.32.38,1.85.29-1.11.2,6.41,10.18,6.43,10,0Z"/><path class="cls-3" d="M101,110.64a123.26,123.26,0,0,0-31.66,2.43c-3.69.71-7.59,1.33-10.66,3.67a11.61,11.61,0,0,0-3,3.5,10.3,10.3,0,0,0-1,2.14c-.61,2.38-1.63-.37,1.31.4a5,5,0,0,0-6.32,4.81c.27,9.59,14.55,14.65,19.48,5.64,1.11-2,1.46-3.92,3.69-4.92s5.25-.69,7.53-.76c3.31-.09,6.63-.12,9.94,0a52.92,52.92,0,0,1,5.62.55,20.14,20.14,0,0,1,2,.38c1.47.65,1.44.25-.08-1.18l.5-3.85c.83-1.19.69-.46-.42-1a6.5,6.5,0,0,0-3.1-.13A9.07,9.07,0,0,0,90,124.75c-5,4,2.09,11,7.06,7.06-1.46,1.17,1.94,1,2.9.91a8.67,8.67,0,0,0,4.7-1.7c2.19-1.64,3.57-4.16,2.69-7-2-6.4-12.85-6.28-18-6.5-6.55-.28-15.28-1-21.38,2a14.26,14.26,0,0,0-5.82,5.23c-.2.31-2.28,4.1-2.11,4.25q3.27-1.17.82-1.13l-1.25-.3-6.32,4.82a7.85,7.85,0,0,0,8.7-3c.94-1.22,1.34-3,2.31-4.11,1.11-1.31,2.6-1.55,4.38-2A114.05,114.05,0,0,1,101,120.62c6.41.41,6.39-9.57,0-10Z"/><path class="cls-3" d="M83.75,145.33a25.71,25.71,0,0,1-12,1.68l4.32,7.51c.4-.75,2.74-1.39,3.43-1.91a7.84,7.84,0,0,0,2.7-3.43c1.37-3.39,0-6.76-2.55-9.12a43.59,43.59,0,0,0-10.37-6.85c-4-1.93-8.49-2-12.18-4.53-6.88-4.74-12.67-2.14-15.38,5.47C39,142,38.43,150,43.82,156.69c2.83,3.54,8.48.45,8.52-3.53a13.47,13.47,0,0,1,4.21-9.95L48,139.68c-.24,4.85-4.81,16.21,4.6,16.72A7.73,7.73,0,0,0,57.44,155c.19-.13,2.73-2.21,2.5-2.6.11.18-4.17-.23-.71.82,3.66,1.11,8.1-.15,8.92-4.3H58.52c.93,2.64,1.85,6.14,4,8.07a5.21,5.21,0,0,0,6,.78l.21-.09-6.05-7.84c2.14,1.38,2.92,1.35,2.35-.12a5.57,5.57,0,0,0-.23-1.06,6,6,0,0,0-1.29-2.46,6.15,6.15,0,0,0-6.48-1.88,10.28,10.28,0,0,0-5.59,4.21c-1.9,2.85-1.12,4.42-1,7.56l2.48-4.31c-1,.59-4.45,1.68-5.93,3.27-2.44,2.63-2,7.09,1.46,8.64,5.82,2.62,10.9-6,5-8.62l1.19,1.3v5c-.84,1.64-.22.38,1,0a13.39,13.39,0,0,0,2.31-1,5,5,0,0,0,2.47-4.31,5.92,5.92,0,0,0-.42-2.87c-.85-1.38,1.14,2-1.72.82l-3-2.29c1.51,2.25,1.32,5.28,4.8,6.89a8.64,8.64,0,0,0,9.66-1.74c4.15-4.26-1.07-10.15-6.05-7.84l-.21.09,6,.78a37.86,37.86,0,0,1-1.43-3.66c-1.51-4.25-8.6-5.22-9.63,0,.9-4.55,5.25-1.86,1.78-3.15a6.61,6.61,0,0,0-2.29-.36c-1.3.05-6.29,1.85-6,3.72L56.43,149a5.53,5.53,0,0,1,.14-1.35,10.63,10.63,0,0,0,.61-2.88,30.81,30.81,0,0,0,.83-5c.22-4.4-5.57-6.48-8.52-3.53a23.76,23.76,0,0,0-7.13,17l8.52-3.53c-2.85-3.57-.61-8.52.34-12.33a9.66,9.66,0,0,1,.52-1.39c.35-.57.19-.6-.5-.09-.84.16-.89.4-.15.73l1.52,1.19a16.54,16.54,0,0,0,5.44,2.5c2.38.64,4.76.9,7,2s4.07,3.11,6.3,4.07c1.22.54,1.08,1.7,1.56-.24s-.63-.9-1.64-.34a9.28,9.28,0,0,0-3.81,3.79c-1.91,3.52.55,7.18,4.31,7.51a32.6,32.6,0,0,0,14.61-2c5.95-2.28,3.37-11.93-2.65-9.63Z"/><path class="cls-3" d="M49,180c2.29,4.07,4.35,8.31,7.4,11.9s7.43,6,10.5,9.67l6.06-7.84c-4-2-1.91-9.21-1.72-12.79.28-5.19-.23-10.69-4.38-14.32a5,5,0,0,0-8.35,4.86c2.29,11.18,10.13,19.73,20.65,23.81l-1.2-9.12c-1.85,1.34-4.2,1.78-5.51.45-1.56-1.59-2.42-4.33-3.94-6.09-3.72-4.3-8.56-6.36-14.1-7.08-6.36-.82-6.3,9.18,0,10,7.37.95,7.47,8,12.38,11.79,4.38,3.34,11.93,2.68,16.21-.44a5.07,5.07,0,0,0-1.19-9.12c-7.35-2.86-12.12-9.26-13.67-16.85l-8.34,4.86c3.41,3,1,10.7,1,14.67,0,5.74,1.69,11.28,7.14,14a5,5,0,0,0,6-7.84c-2.76-3.31-6.54-5.37-9.46-8.49S59.7,178.72,57.59,175c-3.16-5.6-11.79-.57-8.62,5Z"/><path class="cls-3" d="M225.85,136.19c7.72,0,7.73-12,0-12s-7.73,12,0,12Z"/><path class="cls-3" d="M82.33,158.74c1.51,5.68,5.22,9.71,9.9,13.07,4,2.84,9,5.75,8,11.62-1.26,7.56,10.3,10.81,11.57,3.19a22.31,22.31,0,0,0-5.49-19.1c-3.82-4.31-10.79-6-12.39-12-2-7.46-13.56-4.3-11.57,3.19Z"/><path class="cls-3" d="M112.5,176.63A43,43,0,0,0,99.39,161.5l-4.62,11c2.39,1,8,3.07,7,6.41-2.13,7.43,9.45,10.61,11.58,3.19A14.86,14.86,0,0,0,110,168.2c-3.15-3.68-7.65-5.51-12-7.31-2.72-1.12-6.08,1-7.08,3.48-1.19,3,0,5.66,2.46,7.49a30.26,30.26,0,0,1,8.8,10.83c1.46,2.89,5.53,3.71,8.21,2.15a6.12,6.12,0,0,0,2.15-8.21Z"/></g></svg>