<?xml version="1.0" encoding="utf-8"?>
<!-- Generator: Adobe Illustrator 23.0.1, SVG Export Plug-In . SVG Version: 6.00 Build 0)  -->
<svg version="1.1" id="Ebene_1" xmlns="http://www.w3.org/2000/svg" xmlns:xlink="http://www.w3.org/1999/xlink" x="0px" y="0px"
	 viewBox="0 0 15 15" style="enable-background:new 0 0 15 15;" xml:space="preserve">
<style type="text/css">
	.st0{fill:#FF5C33;}
</style>
<path class="st0" d="M3.7,14.5H0.8V5.2h2.9V14.5z M2.3,3.9c-0.9,0-1.7-0.7-1.7-1.7s0.8-1.7,1.7-1.7S4,1.3,4,2.2S3.2,3.9,2.3,3.9z
	 M14.5,14.5h-2.9V9.9c0-1.1,0-2.4-1.5-2.4S8.4,8.7,8.4,9.9v4.6H5.6V5.2h2.8v1.2h0c0.4-0.7,1.3-1.5,2.7-1.5c2.9,0,3.5,1.9,3.5,4.4
	L14.5,14.5L14.5,14.5L14.5,14.5z"/>
</svg>
